<svg width="43" height="35" viewBox="0 0 43 35" fill="none" xmlns="http://www.w3.org/2000/svg">
<path d="M42.28 34.6501H26.04C24.4533 29.5168 23.66 24.1968 23.66 18.6901C23.66 13.0901 25.1067 8.65676 28 5.39009C30.9867 2.0301 35.3733 0.350098 41.16 0.350098V8.1901C36.4933 8.1901 34.16 11.0368 34.16 16.7301V19.3901H42.28V34.6501ZM18.62 34.6501H2.38C0.793333 29.5168 0 24.1968 0 18.6901C0 13.0901 1.44667 8.65676 4.34 5.39009C7.32667 2.0301 11.7133 0.350098 17.5 0.350098V8.1901C12.8333 8.1901 10.5 11.0368 10.5 16.7301V19.3901H18.62V34.6501Z" fill="#CBD5E1"/>
</svg>
