<svg width="155" height="171" viewBox="0 0 155 171" fill="none" xmlns="http://www.w3.org/2000/svg">
<path d="M5 3C5 4.38071 3.88071 5.5 2.5 5.5C1.11929 5.5 0 4.38071 0 3C0 1.61929 1.11929 0.5 2.5 0.5C3.88071 0.5 5 1.61929 5 3Z" fill="#19223F" fill-opacity="0.5"/>
<path d="M20 3C20 4.38071 18.8807 5.5 17.5 5.5C16.1193 5.5 15 4.38071 15 3C15 1.61929 16.1193 0.5 17.5 0.5C18.8807 0.5 20 1.61929 20 3Z" fill="#19223F" fill-opacity="0.5"/>
<path d="M35 3C35 4.38071 33.8807 5.5 32.5 5.5C31.1193 5.5 30 4.38071 30 3C30 1.61929 31.1193 0.5 32.5 0.5C33.8807 0.5 35 1.61929 35 3Z" fill="#19223F" fill-opacity="0.5"/>
<path d="M50 3C50 4.38071 48.8807 5.5 47.5 5.5C46.1193 5.5 45 4.38071 45 3C45 1.61929 46.1193 0.5 47.5 0.5C48.8807 0.5 50 1.61929 50 3Z" fill="#19223F" fill-opacity="0.5"/>
<path d="M65 3C65 4.38071 63.8807 5.5 62.5 5.5C61.1193 5.5 60 4.38071 60 3C60 1.61929 61.1193 0.5 62.5 0.5C63.8807 0.5 65 1.61929 65 3Z" fill="#19223F" fill-opacity="0.5"/>
<path d="M80 3C80 4.38071 78.8807 5.5 77.5 5.5C76.1193 5.5 75 4.38071 75 3C75 1.61929 76.1193 0.5 77.5 0.5C78.8807 0.5 80 1.61929 80 3Z" fill="#19223F" fill-opacity="0.5"/>
<path d="M95 3C95 4.38071 93.8807 5.5 92.5 5.5C91.1193 5.5 90 4.38071 90 3C90 1.61929 91.1193 0.5 92.5 0.5C93.8807 0.5 95 1.61929 95 3Z" fill="#19223F" fill-opacity="0.5"/>
<path d="M110 3C110 4.38071 108.881 5.5 107.5 5.5C106.119 5.5 105 4.38071 105 3C105 1.61929 106.119 0.5 107.5 0.5C108.881 0.5 110 1.61929 110 3Z" fill="#19223F" fill-opacity="0.5"/>
<path d="M125 3C125 4.38071 123.881 5.5 122.5 5.5C121.119 5.5 120 4.38071 120 3C120 1.61929 121.119 0.5 122.5 0.5C123.881 0.5 125 1.61929 125 3Z" fill="#19223F" fill-opacity="0.5"/>
<path d="M140 3C140 4.38071 138.881 5.5 137.5 5.5C136.119 5.5 135 4.38071 135 3C135 1.61929 136.119 0.5 137.5 0.5C138.881 0.5 140 1.61929 140 3Z" fill="#19223F" fill-opacity="0.5"/>
<path d="M155 3C155 4.38071 153.881 5.5 152.5 5.5C151.119 5.5 150 4.38071 150 3C150 1.61929 151.119 0.5 152.5 0.5C153.881 0.5 155 1.61929 155 3Z" fill="#19223F" fill-opacity="0.5"/>
<path d="M5 18C5 19.3807 3.88071 20.5 2.5 20.5C1.11929 20.5 0 19.3807 0 18C0 16.6193 1.11929 15.5 2.5 15.5C3.88071 15.5 5 16.6193 5 18Z" fill="#19223F" fill-opacity="0.5"/>
<path d="M20 18C20 19.3807 18.8807 20.5 17.5 20.5C16.1193 20.5 15 19.3807 15 18C15 16.6193 16.1193 15.5 17.5 15.5C18.8807 15.5 20 16.6193 20 18Z" fill="#19223F" fill-opacity="0.5"/>
<path d="M35 18C35 19.3807 33.8807 20.5 32.5 20.5C31.1193 20.5 30 19.3807 30 18C30 16.6193 31.1193 15.5 32.5 15.5C33.8807 15.5 35 16.6193 35 18Z" fill="#19223F" fill-opacity="0.5"/>
<path d="M50 18C50 19.3807 48.8807 20.5 47.5 20.5C46.1193 20.5 45 19.3807 45 18C45 16.6193 46.1193 15.5 47.5 15.5C48.8807 15.5 50 16.6193 50 18Z" fill="#19223F" fill-opacity="0.5"/>
<path d="M65 18C65 19.3807 63.8807 20.5 62.5 20.5C61.1193 20.5 60 19.3807 60 18C60 16.6193 61.1193 15.5 62.5 15.5C63.8807 15.5 65 16.6193 65 18Z" fill="#19223F" fill-opacity="0.5"/>
<path d="M80 18C80 19.3807 78.8807 20.5 77.5 20.5C76.1193 20.5 75 19.3807 75 18C75 16.6193 76.1193 15.5 77.5 15.5C78.8807 15.5 80 16.6193 80 18Z" fill="#19223F" fill-opacity="0.5"/>
<path d="M95 18C95 19.3807 93.8807 20.5 92.5 20.5C91.1193 20.5 90 19.3807 90 18C90 16.6193 91.1193 15.5 92.5 15.5C93.8807 15.5 95 16.6193 95 18Z" fill="#19223F" fill-opacity="0.5"/>
<path d="M110 18C110 19.3807 108.881 20.5 107.5 20.5C106.119 20.5 105 19.3807 105 18C105 16.6193 106.119 15.5 107.5 15.5C108.881 15.5 110 16.6193 110 18Z" fill="#19223F" fill-opacity="0.5"/>
<path d="M125 18C125 19.3807 123.881 20.5 122.5 20.5C121.119 20.5 120 19.3807 120 18C120 16.6193 121.119 15.5 122.5 15.5C123.881 15.5 125 16.6193 125 18Z" fill="#19223F" fill-opacity="0.5"/>
<path d="M140 18C140 19.3807 138.881 20.5 137.5 20.5C136.119 20.5 135 19.3807 135 18C135 16.6193 136.119 15.5 137.5 15.5C138.881 15.5 140 16.6193 140 18Z" fill="#19223F" fill-opacity="0.5"/>
<path d="M155 18C155 19.3807 153.881 20.5 152.5 20.5C151.119 20.5 150 19.3807 150 18C150 16.6193 151.119 15.5 152.5 15.5C153.881 15.5 155 16.6193 155 18Z" fill="#19223F" fill-opacity="0.5"/>
<path d="M5 33C5 34.3807 3.88071 35.5 2.5 35.5C1.11929 35.5 0 34.3807 0 33C0 31.6193 1.11929 30.5 2.5 30.5C3.88071 30.5 5 31.6193 5 33Z" fill="#19223F" fill-opacity="0.5"/>
<path d="M20 33C20 34.3807 18.8807 35.5 17.5 35.5C16.1193 35.5 15 34.3807 15 33C15 31.6193 16.1193 30.5 17.5 30.5C18.8807 30.5 20 31.6193 20 33Z" fill="#19223F" fill-opacity="0.5"/>
<path d="M35 33C35 34.3807 33.8807 35.5 32.5 35.5C31.1193 35.5 30 34.3807 30 33C30 31.6193 31.1193 30.5 32.5 30.5C33.8807 30.5 35 31.6193 35 33Z" fill="#19223F" fill-opacity="0.5"/>
<path d="M50 33C50 34.3807 48.8807 35.5 47.5 35.5C46.1193 35.5 45 34.3807 45 33C45 31.6193 46.1193 30.5 47.5 30.5C48.8807 30.5 50 31.6193 50 33Z" fill="#19223F" fill-opacity="0.5"/>
<path d="M65 33C65 34.3807 63.8807 35.5 62.5 35.5C61.1193 35.5 60 34.3807 60 33C60 31.6193 61.1193 30.5 62.5 30.5C63.8807 30.5 65 31.6193 65 33Z" fill="#19223F" fill-opacity="0.5"/>
<path d="M80 33C80 34.3807 78.8807 35.5 77.5 35.5C76.1193 35.5 75 34.3807 75 33C75 31.6193 76.1193 30.5 77.5 30.5C78.8807 30.5 80 31.6193 80 33Z" fill="#19223F" fill-opacity="0.5"/>
<path d="M95 33C95 34.3807 93.8807 35.5 92.5 35.5C91.1193 35.5 90 34.3807 90 33C90 31.6193 91.1193 30.5 92.5 30.5C93.8807 30.5 95 31.6193 95 33Z" fill="#19223F" fill-opacity="0.5"/>
<path d="M110 33C110 34.3807 108.881 35.5 107.5 35.5C106.119 35.5 105 34.3807 105 33C105 31.6193 106.119 30.5 107.5 30.5C108.881 30.5 110 31.6193 110 33Z" fill="#19223F" fill-opacity="0.5"/>
<path d="M125 33C125 34.3807 123.881 35.5 122.5 35.5C121.119 35.5 120 34.3807 120 33C120 31.6193 121.119 30.5 122.5 30.5C123.881 30.5 125 31.6193 125 33Z" fill="#19223F" fill-opacity="0.5"/>
<path d="M140 33C140 34.3807 138.881 35.5 137.5 35.5C136.119 35.5 135 34.3807 135 33C135 31.6193 136.119 30.5 137.5 30.5C138.881 30.5 140 31.6193 140 33Z" fill="#19223F" fill-opacity="0.5"/>
<path d="M155 33C155 34.3807 153.881 35.5 152.5 35.5C151.119 35.5 150 34.3807 150 33C150 31.6193 151.119 30.5 152.5 30.5C153.881 30.5 155 31.6193 155 33Z" fill="#19223F" fill-opacity="0.5"/>
<path d="M5 48C5 49.3807 3.88071 50.5 2.5 50.5C1.11929 50.5 0 49.3807 0 48C0 46.6193 1.11929 45.5 2.5 45.5C3.88071 45.5 5 46.6193 5 48Z" fill="#19223F" fill-opacity="0.5"/>
<path d="M20 48C20 49.3807 18.8807 50.5 17.5 50.5C16.1193 50.5 15 49.3807 15 48C15 46.6193 16.1193 45.5 17.5 45.5C18.8807 45.5 20 46.6193 20 48Z" fill="#19223F" fill-opacity="0.5"/>
<path d="M35 48C35 49.3807 33.8807 50.5 32.5 50.5C31.1193 50.5 30 49.3807 30 48C30 46.6193 31.1193 45.5 32.5 45.5C33.8807 45.5 35 46.6193 35 48Z" fill="#19223F" fill-opacity="0.5"/>
<path d="M50 48C50 49.3807 48.8807 50.5 47.5 50.5C46.1193 50.5 45 49.3807 45 48C45 46.6193 46.1193 45.5 47.5 45.5C48.8807 45.5 50 46.6193 50 48Z" fill="#19223F" fill-opacity="0.5"/>
<path d="M65 48C65 49.3807 63.8807 50.5 62.5 50.5C61.1193 50.5 60 49.3807 60 48C60 46.6193 61.1193 45.5 62.5 45.5C63.8807 45.5 65 46.6193 65 48Z" fill="#19223F" fill-opacity="0.5"/>
<path d="M80 48C80 49.3807 78.8807 50.5 77.5 50.5C76.1193 50.5 75 49.3807 75 48C75 46.6193 76.1193 45.5 77.5 45.5C78.8807 45.5 80 46.6193 80 48Z" fill="#19223F" fill-opacity="0.5"/>
<path d="M95 48C95 49.3807 93.8807 50.5 92.5 50.5C91.1193 50.5 90 49.3807 90 48C90 46.6193 91.1193 45.5 92.5 45.5C93.8807 45.5 95 46.6193 95 48Z" fill="#19223F" fill-opacity="0.5"/>
<path d="M110 48C110 49.3807 108.881 50.5 107.5 50.5C106.119 50.5 105 49.3807 105 48C105 46.6193 106.119 45.5 107.5 45.5C108.881 45.5 110 46.6193 110 48Z" fill="#19223F" fill-opacity="0.5"/>
<path d="M125 48C125 49.3807 123.881 50.5 122.5 50.5C121.119 50.5 120 49.3807 120 48C120 46.6193 121.119 45.5 122.5 45.5C123.881 45.5 125 46.6193 125 48Z" fill="#19223F" fill-opacity="0.5"/>
<path d="M140 48C140 49.3807 138.881 50.5 137.5 50.5C136.119 50.5 135 49.3807 135 48C135 46.6193 136.119 45.5 137.5 45.5C138.881 45.5 140 46.6193 140 48Z" fill="#19223F" fill-opacity="0.5"/>
<path d="M155 48C155 49.3807 153.881 50.5 152.5 50.5C151.119 50.5 150 49.3807 150 48C150 46.6193 151.119 45.5 152.5 45.5C153.881 45.5 155 46.6193 155 48Z" fill="#19223F" fill-opacity="0.5"/>
<path d="M5 63C5 64.3807 3.88071 65.5 2.5 65.5C1.11929 65.5 0 64.3807 0 63C0 61.6193 1.11929 60.5 2.5 60.5C3.88071 60.5 5 61.6193 5 63Z" fill="#19223F" fill-opacity="0.5"/>
<path d="M20 63C20 64.3807 18.8807 65.5 17.5 65.5C16.1193 65.5 15 64.3807 15 63C15 61.6193 16.1193 60.5 17.5 60.5C18.8807 60.5 20 61.6193 20 63Z" fill="#19223F" fill-opacity="0.5"/>
<path d="M35 63C35 64.3807 33.8807 65.5 32.5 65.5C31.1193 65.5 30 64.3807 30 63C30 61.6193 31.1193 60.5 32.5 60.5C33.8807 60.5 35 61.6193 35 63Z" fill="#19223F" fill-opacity="0.5"/>
<path d="M50 63C50 64.3807 48.8807 65.5 47.5 65.5C46.1193 65.5 45 64.3807 45 63C45 61.6193 46.1193 60.5 47.5 60.5C48.8807 60.5 50 61.6193 50 63Z" fill="#19223F" fill-opacity="0.5"/>
<path d="M65 63C65 64.3807 63.8807 65.5 62.5 65.5C61.1193 65.5 60 64.3807 60 63C60 61.6193 61.1193 60.5 62.5 60.5C63.8807 60.5 65 61.6193 65 63Z" fill="#19223F" fill-opacity="0.5"/>
<path d="M80 63C80 64.3807 78.8807 65.5 77.5 65.5C76.1193 65.5 75 64.3807 75 63C75 61.6193 76.1193 60.5 77.5 60.5C78.8807 60.5 80 61.6193 80 63Z" fill="#19223F" fill-opacity="0.5"/>
<path d="M95 63C95 64.3807 93.8807 65.5 92.5 65.5C91.1193 65.5 90 64.3807 90 63C90 61.6193 91.1193 60.5 92.5 60.5C93.8807 60.5 95 61.6193 95 63Z" fill="#19223F" fill-opacity="0.5"/>
<path d="M110 63C110 64.3807 108.881 65.5 107.5 65.5C106.119 65.5 105 64.3807 105 63C105 61.6193 106.119 60.5 107.5 60.5C108.881 60.5 110 61.6193 110 63Z" fill="#19223F" fill-opacity="0.5"/>
<path d="M125 63C125 64.3807 123.881 65.5 122.5 65.5C121.119 65.5 120 64.3807 120 63C120 61.6193 121.119 60.5 122.5 60.5C123.881 60.5 125 61.6193 125 63Z" fill="#19223F" fill-opacity="0.5"/>
<path d="M140 63C140 64.3807 138.881 65.5 137.5 65.5C136.119 65.5 135 64.3807 135 63C135 61.6193 136.119 60.5 137.5 60.5C138.881 60.5 140 61.6193 140 63Z" fill="#19223F" fill-opacity="0.5"/>
<path d="M155 63C155 64.3807 153.881 65.5 152.5 65.5C151.119 65.5 150 64.3807 150 63C150 61.6193 151.119 60.5 152.5 60.5C153.881 60.5 155 61.6193 155 63Z" fill="#19223F" fill-opacity="0.5"/>
<path d="M5 78C5 79.3807 3.88071 80.5 2.5 80.5C1.11929 80.5 0 79.3807 0 78C0 76.6193 1.11929 75.5 2.5 75.5C3.88071 75.5 5 76.6193 5 78Z" fill="#19223F" fill-opacity="0.5"/>
<path d="M20 78C20 79.3807 18.8807 80.5 17.5 80.5C16.1193 80.5 15 79.3807 15 78C15 76.6193 16.1193 75.5 17.5 75.5C18.8807 75.5 20 76.6193 20 78Z" fill="#19223F" fill-opacity="0.5"/>
<path d="M35 78C35 79.3807 33.8807 80.5 32.5 80.5C31.1193 80.5 30 79.3807 30 78C30 76.6193 31.1193 75.5 32.5 75.5C33.8807 75.5 35 76.6193 35 78Z" fill="#19223F" fill-opacity="0.5"/>
<path d="M50 78C50 79.3807 48.8807 80.5 47.5 80.5C46.1193 80.5 45 79.3807 45 78C45 76.6193 46.1193 75.5 47.5 75.5C48.8807 75.5 50 76.6193 50 78Z" fill="#19223F" fill-opacity="0.5"/>
<path d="M65 78C65 79.3807 63.8807 80.5 62.5 80.5C61.1193 80.5 60 79.3807 60 78C60 76.6193 61.1193 75.5 62.5 75.5C63.8807 75.5 65 76.6193 65 78Z" fill="#19223F" fill-opacity="0.5"/>
<path d="M80 78C80 79.3807 78.8807 80.5 77.5 80.5C76.1193 80.5 75 79.3807 75 78C75 76.6193 76.1193 75.5 77.5 75.5C78.8807 75.5 80 76.6193 80 78Z" fill="#19223F" fill-opacity="0.5"/>
<path d="M95 78C95 79.3807 93.8807 80.5 92.5 80.5C91.1193 80.5 90 79.3807 90 78C90 76.6193 91.1193 75.5 92.5 75.5C93.8807 75.5 95 76.6193 95 78Z" fill="#19223F" fill-opacity="0.5"/>
<path d="M110 78C110 79.3807 108.881 80.5 107.5 80.5C106.119 80.5 105 79.3807 105 78C105 76.6193 106.119 75.5 107.5 75.5C108.881 75.5 110 76.6193 110 78Z" fill="#19223F" fill-opacity="0.5"/>
<path d="M125 78C125 79.3807 123.881 80.5 122.5 80.5C121.119 80.5 120 79.3807 120 78C120 76.6193 121.119 75.5 122.5 75.5C123.881 75.5 125 76.6193 125 78Z" fill="#19223F" fill-opacity="0.5"/>
<path d="M140 78C140 79.3807 138.881 80.5 137.5 80.5C136.119 80.5 135 79.3807 135 78C135 76.6193 136.119 75.5 137.5 75.5C138.881 75.5 140 76.6193 140 78Z" fill="#19223F" fill-opacity="0.5"/>
<path d="M155 78C155 79.3807 153.881 80.5 152.5 80.5C151.119 80.5 150 79.3807 150 78C150 76.6193 151.119 75.5 152.5 75.5C153.881 75.5 155 76.6193 155 78Z" fill="#19223F" fill-opacity="0.5"/>
<path d="M5 93C5 94.3807 3.88071 95.5 2.5 95.5C1.11929 95.5 0 94.3807 0 93C0 91.6193 1.11929 90.5 2.5 90.5C3.88071 90.5 5 91.6193 5 93Z" fill="#19223F" fill-opacity="0.5"/>
<path d="M20 93C20 94.3807 18.8807 95.5 17.5 95.5C16.1193 95.5 15 94.3807 15 93C15 91.6193 16.1193 90.5 17.5 90.5C18.8807 90.5 20 91.6193 20 93Z" fill="#19223F" fill-opacity="0.5"/>
<path d="M35 93C35 94.3807 33.8807 95.5 32.5 95.5C31.1193 95.5 30 94.3807 30 93C30 91.6193 31.1193 90.5 32.5 90.5C33.8807 90.5 35 91.6193 35 93Z" fill="#19223F" fill-opacity="0.5"/>
<path d="M50 93C50 94.3807 48.8807 95.5 47.5 95.5C46.1193 95.5 45 94.3807 45 93C45 91.6193 46.1193 90.5 47.5 90.5C48.8807 90.5 50 91.6193 50 93Z" fill="#19223F" fill-opacity="0.5"/>
<path d="M65 93C65 94.3807 63.8807 95.5 62.5 95.5C61.1193 95.5 60 94.3807 60 93C60 91.6193 61.1193 90.5 62.5 90.5C63.8807 90.5 65 91.6193 65 93Z" fill="#19223F" fill-opacity="0.5"/>
<path d="M80 93C80 94.3807 78.8807 95.5 77.5 95.5C76.1193 95.5 75 94.3807 75 93C75 91.6193 76.1193 90.5 77.5 90.5C78.8807 90.5 80 91.6193 80 93Z" fill="#19223F" fill-opacity="0.5"/>
<path d="M95 93C95 94.3807 93.8807 95.5 92.5 95.5C91.1193 95.5 90 94.3807 90 93C90 91.6193 91.1193 90.5 92.5 90.5C93.8807 90.5 95 91.6193 95 93Z" fill="#19223F" fill-opacity="0.5"/>
<path d="M110 93C110 94.3807 108.881 95.5 107.5 95.5C106.119 95.5 105 94.3807 105 93C105 91.6193 106.119 90.5 107.5 90.5C108.881 90.5 110 91.6193 110 93Z" fill="#19223F" fill-opacity="0.5"/>
<path d="M125 93C125 94.3807 123.881 95.5 122.5 95.5C121.119 95.5 120 94.3807 120 93C120 91.6193 121.119 90.5 122.5 90.5C123.881 90.5 125 91.6193 125 93Z" fill="#19223F" fill-opacity="0.5"/>
<path d="M140 93C140 94.3807 138.881 95.5 137.5 95.5C136.119 95.5 135 94.3807 135 93C135 91.6193 136.119 90.5 137.5 90.5C138.881 90.5 140 91.6193 140 93Z" fill="#19223F" fill-opacity="0.5"/>
<path d="M155 93C155 94.3807 153.881 95.5 152.5 95.5C151.119 95.5 150 94.3807 150 93C150 91.6193 151.119 90.5 152.5 90.5C153.881 90.5 155 91.6193 155 93Z" fill="#19223F" fill-opacity="0.5"/>
<path d="M5 108C5 109.381 3.88071 110.5 2.5 110.5C1.11929 110.5 0 109.381 0 108C0 106.619 1.11929 105.5 2.5 105.5C3.88071 105.5 5 106.619 5 108Z" fill="#19223F" fill-opacity="0.5"/>
<path d="M20 108C20 109.381 18.8807 110.5 17.5 110.5C16.1193 110.5 15 109.381 15 108C15 106.619 16.1193 105.5 17.5 105.5C18.8807 105.5 20 106.619 20 108Z" fill="#19223F" fill-opacity="0.5"/>
<path d="M35 108C35 109.381 33.8807 110.5 32.5 110.5C31.1193 110.5 30 109.381 30 108C30 106.619 31.1193 105.5 32.5 105.5C33.8807 105.5 35 106.619 35 108Z" fill="#19223F" fill-opacity="0.5"/>
<path d="M50 108C50 109.381 48.8807 110.5 47.5 110.5C46.1193 110.5 45 109.381 45 108C45 106.619 46.1193 105.5 47.5 105.5C48.8807 105.5 50 106.619 50 108Z" fill="#19223F" fill-opacity="0.5"/>
<path d="M65 108C65 109.381 63.8807 110.5 62.5 110.5C61.1193 110.5 60 109.381 60 108C60 106.619 61.1193 105.5 62.5 105.5C63.8807 105.5 65 106.619 65 108Z" fill="#19223F" fill-opacity="0.5"/>
<path d="M80 108C80 109.381 78.8807 110.5 77.5 110.5C76.1193 110.5 75 109.381 75 108C75 106.619 76.1193 105.5 77.5 105.5C78.8807 105.5 80 106.619 80 108Z" fill="#19223F" fill-opacity="0.5"/>
<path d="M95 108C95 109.381 93.8807 110.5 92.5 110.5C91.1193 110.5 90 109.381 90 108C90 106.619 91.1193 105.5 92.5 105.5C93.8807 105.5 95 106.619 95 108Z" fill="#19223F" fill-opacity="0.5"/>
<path d="M110 108C110 109.381 108.881 110.5 107.5 110.5C106.119 110.5 105 109.381 105 108C105 106.619 106.119 105.5 107.5 105.5C108.881 105.5 110 106.619 110 108Z" fill="#19223F" fill-opacity="0.5"/>
<path d="M125 108C125 109.381 123.881 110.5 122.5 110.5C121.119 110.5 120 109.381 120 108C120 106.619 121.119 105.5 122.5 105.5C123.881 105.5 125 106.619 125 108Z" fill="#19223F" fill-opacity="0.5"/>
<path d="M140 108C140 109.381 138.881 110.5 137.5 110.5C136.119 110.5 135 109.381 135 108C135 106.619 136.119 105.5 137.5 105.5C138.881 105.5 140 106.619 140 108Z" fill="#19223F" fill-opacity="0.5"/>
<path d="M155 108C155 109.381 153.881 110.5 152.5 110.5C151.119 110.5 150 109.381 150 108C150 106.619 151.119 105.5 152.5 105.5C153.881 105.5 155 106.619 155 108Z" fill="#19223F" fill-opacity="0.5"/>
<path d="M5 123C5 124.381 3.88071 125.5 2.5 125.5C1.11929 125.5 0 124.381 0 123C0 121.619 1.11929 120.5 2.5 120.5C3.88071 120.5 5 121.619 5 123Z" fill="#19223F" fill-opacity="0.5"/>
<path d="M20 123C20 124.381 18.8807 125.5 17.5 125.5C16.1193 125.5 15 124.381 15 123C15 121.619 16.1193 120.5 17.5 120.5C18.8807 120.5 20 121.619 20 123Z" fill="#19223F" fill-opacity="0.5"/>
<path d="M35 123C35 124.381 33.8807 125.5 32.5 125.5C31.1193 125.5 30 124.381 30 123C30 121.619 31.1193 120.5 32.5 120.5C33.8807 120.5 35 121.619 35 123Z" fill="#19223F" fill-opacity="0.5"/>
<path d="M50 123C50 124.381 48.8807 125.5 47.5 125.5C46.1193 125.5 45 124.381 45 123C45 121.619 46.1193 120.5 47.5 120.5C48.8807 120.5 50 121.619 50 123Z" fill="#19223F" fill-opacity="0.5"/>
<path d="M65 123C65 124.381 63.8807 125.5 62.5 125.5C61.1193 125.5 60 124.381 60 123C60 121.619 61.1193 120.5 62.5 120.5C63.8807 120.5 65 121.619 65 123Z" fill="#19223F" fill-opacity="0.5"/>
<path d="M80 123C80 124.381 78.8807 125.5 77.5 125.5C76.1193 125.5 75 124.381 75 123C75 121.619 76.1193 120.5 77.5 120.5C78.8807 120.5 80 121.619 80 123Z" fill="#19223F" fill-opacity="0.5"/>
<path d="M95 123C95 124.381 93.8807 125.5 92.5 125.5C91.1193 125.5 90 124.381 90 123C90 121.619 91.1193 120.5 92.5 120.5C93.8807 120.5 95 121.619 95 123Z" fill="#19223F" fill-opacity="0.5"/>
<path d="M110 123C110 124.381 108.881 125.5 107.5 125.5C106.119 125.5 105 124.381 105 123C105 121.619 106.119 120.5 107.5 120.5C108.881 120.5 110 121.619 110 123Z" fill="#19223F" fill-opacity="0.5"/>
<path d="M125 123C125 124.381 123.881 125.5 122.5 125.5C121.119 125.5 120 124.381 120 123C120 121.619 121.119 120.5 122.5 120.5C123.881 120.5 125 121.619 125 123Z" fill="#19223F" fill-opacity="0.5"/>
<path d="M140 123C140 124.381 138.881 125.5 137.5 125.5C136.119 125.5 135 124.381 135 123C135 121.619 136.119 120.5 137.5 120.5C138.881 120.5 140 121.619 140 123Z" fill="#19223F" fill-opacity="0.5"/>
<path d="M155 123C155 124.381 153.881 125.5 152.5 125.5C151.119 125.5 150 124.381 150 123C150 121.619 151.119 120.5 152.5 120.5C153.881 120.5 155 121.619 155 123Z" fill="#19223F" fill-opacity="0.5"/>
<path d="M5 138C5 139.381 3.88071 140.5 2.5 140.5C1.11929 140.5 0 139.381 0 138C0 136.619 1.11929 135.5 2.5 135.5C3.88071 135.5 5 136.619 5 138Z" fill="#19223F" fill-opacity="0.5"/>
<path d="M20 138C20 139.381 18.8807 140.5 17.5 140.5C16.1193 140.5 15 139.381 15 138C15 136.619 16.1193 135.5 17.5 135.5C18.8807 135.5 20 136.619 20 138Z" fill="#19223F" fill-opacity="0.5"/>
<path d="M35 138C35 139.381 33.8807 140.5 32.5 140.5C31.1193 140.5 30 139.381 30 138C30 136.619 31.1193 135.5 32.5 135.5C33.8807 135.5 35 136.619 35 138Z" fill="#19223F" fill-opacity="0.5"/>
<path d="M50 138C50 139.381 48.8807 140.5 47.5 140.5C46.1193 140.5 45 139.381 45 138C45 136.619 46.1193 135.5 47.5 135.5C48.8807 135.5 50 136.619 50 138Z" fill="#19223F" fill-opacity="0.5"/>
<path d="M65 138C65 139.381 63.8807 140.5 62.5 140.5C61.1193 140.5 60 139.381 60 138C60 136.619 61.1193 135.5 62.5 135.5C63.8807 135.5 65 136.619 65 138Z" fill="#19223F" fill-opacity="0.5"/>
<path d="M80 138C80 139.381 78.8807 140.5 77.5 140.5C76.1193 140.5 75 139.381 75 138C75 136.619 76.1193 135.5 77.5 135.5C78.8807 135.5 80 136.619 80 138Z" fill="#19223F" fill-opacity="0.5"/>
<path d="M95 138C95 139.381 93.8807 140.5 92.5 140.5C91.1193 140.5 90 139.381 90 138C90 136.619 91.1193 135.5 92.5 135.5C93.8807 135.5 95 136.619 95 138Z" fill="#19223F" fill-opacity="0.5"/>
<path d="M110 138C110 139.381 108.881 140.5 107.5 140.5C106.119 140.5 105 139.381 105 138C105 136.619 106.119 135.5 107.5 135.5C108.881 135.5 110 136.619 110 138Z" fill="#19223F" fill-opacity="0.5"/>
<path d="M125 138C125 139.381 123.881 140.5 122.5 140.5C121.119 140.5 120 139.381 120 138C120 136.619 121.119 135.5 122.5 135.5C123.881 135.5 125 136.619 125 138Z" fill="#19223F" fill-opacity="0.5"/>
<path d="M140 138C140 139.381 138.881 140.5 137.5 140.5C136.119 140.5 135 139.381 135 138C135 136.619 136.119 135.5 137.5 135.5C138.881 135.5 140 136.619 140 138Z" fill="#19223F" fill-opacity="0.5"/>
<path d="M155 138C155 139.381 153.881 140.5 152.5 140.5C151.119 140.5 150 139.381 150 138C150 136.619 151.119 135.5 152.5 135.5C153.881 135.5 155 136.619 155 138Z" fill="#19223F" fill-opacity="0.5"/>
<path d="M5 153C5 154.381 3.88071 155.5 2.5 155.5C1.11929 155.5 0 154.381 0 153C0 151.619 1.11929 150.5 2.5 150.5C3.88071 150.5 5 151.619 5 153Z" fill="#19223F" fill-opacity="0.5"/>
<path d="M20 153C20 154.381 18.8807 155.5 17.5 155.5C16.1193 155.5 15 154.381 15 153C15 151.619 16.1193 150.5 17.5 150.5C18.8807 150.5 20 151.619 20 153Z" fill="#19223F" fill-opacity="0.5"/>
<path d="M35 153C35 154.381 33.8807 155.5 32.5 155.5C31.1193 155.5 30 154.381 30 153C30 151.619 31.1193 150.5 32.5 150.5C33.8807 150.5 35 151.619 35 153Z" fill="#19223F" fill-opacity="0.5"/>
<path d="M50 153C50 154.381 48.8807 155.5 47.5 155.5C46.1193 155.5 45 154.381 45 153C45 151.619 46.1193 150.5 47.5 150.5C48.8807 150.5 50 151.619 50 153Z" fill="#19223F" fill-opacity="0.5"/>
<path d="M65 153C65 154.381 63.8807 155.5 62.5 155.5C61.1193 155.5 60 154.381 60 153C60 151.619 61.1193 150.5 62.5 150.5C63.8807 150.5 65 151.619 65 153Z" fill="#19223F" fill-opacity="0.5"/>
<path d="M80 153C80 154.381 78.8807 155.5 77.5 155.5C76.1193 155.5 75 154.381 75 153C75 151.619 76.1193 150.5 77.5 150.5C78.8807 150.5 80 151.619 80 153Z" fill="#19223F" fill-opacity="0.5"/>
<path d="M95 153C95 154.381 93.8807 155.5 92.5 155.5C91.1193 155.5 90 154.381 90 153C90 151.619 91.1193 150.5 92.5 150.5C93.8807 150.5 95 151.619 95 153Z" fill="#19223F" fill-opacity="0.5"/>
<path d="M110 153C110 154.381 108.881 155.5 107.5 155.5C106.119 155.5 105 154.381 105 153C105 151.619 106.119 150.5 107.5 150.5C108.881 150.5 110 151.619 110 153Z" fill="#19223F" fill-opacity="0.5"/>
<path d="M125 153C125 154.381 123.881 155.5 122.5 155.5C121.119 155.5 120 154.381 120 153C120 151.619 121.119 150.5 122.5 150.5C123.881 150.5 125 151.619 125 153Z" fill="#19223F" fill-opacity="0.5"/>
<path d="M140 153C140 154.381 138.881 155.5 137.5 155.5C136.119 155.5 135 154.381 135 153C135 151.619 136.119 150.5 137.5 150.5C138.881 150.5 140 151.619 140 153Z" fill="#19223F" fill-opacity="0.5"/>
<path d="M155 153C155 154.381 153.881 155.5 152.5 155.5C151.119 155.5 150 154.381 150 153C150 151.619 151.119 150.5 152.5 150.5C153.881 150.5 155 151.619 155 153Z" fill="#19223F" fill-opacity="0.5"/>
<path d="M5 168C5 169.381 3.88071 170.5 2.5 170.5C1.11929 170.5 0 169.381 0 168C0 166.619 1.11929 165.5 2.5 165.5C3.88071 165.5 5 166.619 5 168Z" fill="#19223F" fill-opacity="0.5"/>
<path d="M20 168C20 169.381 18.8807 170.5 17.5 170.5C16.1193 170.5 15 169.381 15 168C15 166.619 16.1193 165.5 17.5 165.5C18.8807 165.5 20 166.619 20 168Z" fill="#19223F" fill-opacity="0.5"/>
<path d="M35 168C35 169.381 33.8807 170.5 32.5 170.5C31.1193 170.5 30 169.381 30 168C30 166.619 31.1193 165.5 32.5 165.5C33.8807 165.5 35 166.619 35 168Z" fill="#19223F" fill-opacity="0.5"/>
<path d="M50 168C50 169.381 48.8807 170.5 47.5 170.5C46.1193 170.5 45 169.381 45 168C45 166.619 46.1193 165.5 47.5 165.5C48.8807 165.5 50 166.619 50 168Z" fill="#19223F" fill-opacity="0.5"/>
<path d="M65 168C65 169.381 63.8807 170.5 62.5 170.5C61.1193 170.5 60 169.381 60 168C60 166.619 61.1193 165.5 62.5 165.5C63.8807 165.5 65 166.619 65 168Z" fill="#19223F" fill-opacity="0.5"/>
<path d="M80 168C80 169.381 78.8807 170.5 77.5 170.5C76.1193 170.5 75 169.381 75 168C75 166.619 76.1193 165.5 77.5 165.5C78.8807 165.5 80 166.619 80 168Z" fill="#19223F" fill-opacity="0.5"/>
<path d="M95 168C95 169.381 93.8807 170.5 92.5 170.5C91.1193 170.5 90 169.381 90 168C90 166.619 91.1193 165.5 92.5 165.5C93.8807 165.5 95 166.619 95 168Z" fill="#19223F" fill-opacity="0.5"/>
<path d="M110 168C110 169.381 108.881 170.5 107.5 170.5C106.119 170.5 105 169.381 105 168C105 166.619 106.119 165.5 107.5 165.5C108.881 165.5 110 166.619 110 168Z" fill="#19223F" fill-opacity="0.5"/>
<path d="M125 168C125 169.381 123.881 170.5 122.5 170.5C121.119 170.5 120 169.381 120 168C120 166.619 121.119 165.5 122.5 165.5C123.881 165.5 125 166.619 125 168Z" fill="#19223F" fill-opacity="0.5"/>
<path d="M140 168C140 169.381 138.881 170.5 137.5 170.5C136.119 170.5 135 169.381 135 168C135 166.619 136.119 165.5 137.5 165.5C138.881 165.5 140 166.619 140 168Z" fill="#19223F" fill-opacity="0.5"/>
<path d="M155 168C155 169.381 153.881 170.5 152.5 170.5C151.119 170.5 150 169.381 150 168C150 166.619 151.119 165.5 152.5 165.5C153.881 165.5 155 166.619 155 168Z" fill="#19223F" fill-opacity="0.5"/>
</svg>
