<svg width="47" height="42" viewBox="0 0 47 42" fill="none" xmlns="http://www.w3.org/2000/svg">
<path d="M26.8521 40.2361C25.2594 40.6461 23.5897 40.8641 21.8691 40.8641C10.8609 40.8641 1.93701 31.9402 1.93701 20.932C1.93701 9.92388 10.8609 1 21.8691 1C32.0335 1 40.4208 8.60828 41.6469 18.4405M4.42852 28.4066H10.242C12.5354 28.4066 14.3945 26.5474 14.3945 24.2541V18.8558C14.3945 16.5624 16.2537 14.7033 18.5471 14.7033H22.6996C24.9929 14.7033 26.8521 12.8441 26.8521 10.5508V3.49151M39.4084 33.4355L45.1143 31.4628C46.1838 31.093 46.2196 29.5935 45.1689 29.1732L31.0224 23.5138C30.0383 23.1201 29.0538 24.0802 29.4229 25.0739L34.8118 39.5833C35.2056 40.6436 36.7044 40.646 37.1016 39.587L39.4084 33.4355Z" stroke="black" stroke-width="2" stroke-linecap="round" stroke-linejoin="round"/>
</svg>
