<svg width="755" height="556" viewBox="0 0 755 556" fill="none" xmlns="http://www.w3.org/2000/svg">
<rect x="-0.5" y="1.5" width="755" height="553" stroke="#19223F"/>
<path d="M640.823 37.4767C640.612 32.2197 640.22 26.9655 639.859 21.7113C639.859 15.5758 634.777 14.2859 632.036 16.7879C612.039 35.603 578.031 65.1127 559.547 81.284C558.86 81.8904 558.373 82.6905 558.149 83.579C557.926 84.4676 557.976 85.403 558.294 86.2624C558.612 87.1217 559.182 87.8648 559.931 88.3938C560.679 88.9228 561.569 89.2131 562.486 89.2264C562.36 89.6907 562.244 90.1605 562.141 90.6387C530.157 102.666 497.555 112.98 464.474 121.538C457.618 123.329 439.267 127.768 436.968 128.327C437.621 126.482 438.907 124.928 440.599 123.943C448.728 118.264 450.674 119.217 454.521 115.247C455.388 114.334 455.908 113.146 455.992 111.89C456.075 110.633 455.717 109.387 454.98 108.367C453.359 106.568 450.187 106.273 449.584 104.127C448.353 99.7015 456.034 93.0072 455.633 87.0414C455.177 80.2526 446.459 71.0508 433.207 69.1298C425.66 67.9304 417.956 68.1359 410.483 69.7358C404.873 70.8959 399.74 73.7143 395.749 77.8257C392.611 81.0866 387.899 84.8924 386.314 89.2237C385.369 91.7257 385.052 94.6141 382.978 96.0402C382.15 96.4856 381.238 96.7542 380.301 96.8288C379.363 96.9035 378.42 96.7826 377.532 96.4739C368.024 94.0748 362.278 84.2975 353.19 80.0552C349.146 78.2267 344.671 77.5648 340.271 78.1445C335.87 78.7241 331.72 80.5221 328.287 83.3356C326.718 85.086 324.757 86.4413 322.566 87.2916C321.217 87.5293 319.832 87.4676 318.51 87.1109C308.201 84.4643 301.232 77.745 291.307 76.3578C286.692 75.7307 281.994 76.2323 277.615 77.8194C273.236 79.4066 269.307 82.032 266.165 85.4707C264.624 86.9835 263.45 88.8297 262.733 90.8674C262.017 92.9051 261.778 95.0799 262.034 97.2245C263.424 103.04 269.698 105.934 272.337 106.91C276.785 108.556 281.728 109.737 285.336 112.923C285.917 113.355 286.355 113.952 286.593 114.636C287.101 116.231 285.344 117.694 283.746 118.066C281.942 118.21 280.148 118.463 278.375 118.825C278.333 118.833 278.295 118.855 278.266 118.887C278.238 118.92 278.221 118.96 278.218 119.003C278.215 119.046 278.227 119.089 278.25 119.124C278.274 119.16 278.309 119.187 278.35 119.2C282.515 120.698 286.955 121.28 291.366 120.905C293.568 120.646 295.637 119.713 297.289 118.234C298.942 116.756 300.097 114.803 300.598 112.642C300.75 111.357 300.81 110.063 300.779 108.77C301.285 104.322 304.246 105.281 307.898 107.88C311.948 110.809 316.627 112.751 321.56 113.549C326.494 114.348 331.546 113.981 336.313 112.478C340.058 111.28 342.279 107.413 346.221 107.413C347.186 107.414 348.131 107.687 348.948 108.2C349.766 108.712 350.423 109.445 350.844 110.313C351.15 111.546 351.521 112.763 351.956 113.957C342.139 114.767 332.508 117.106 323.414 120.891C318.421 122.991 313.982 126.216 310.442 130.315C306.877 129.472 303.165 129.472 299.6 130.315C290.704 132.586 287.874 140.523 286.512 146.453C286.501 146.627 286.539 146.801 286.621 146.954C286.704 147.108 286.828 147.235 286.979 147.322C287.131 147.409 287.303 147.452 287.478 147.445C287.652 147.439 287.821 147.384 287.966 147.287C293.296 143.464 299.19 140.496 305.435 138.491C302.961 144.965 302.755 152.087 304.852 158.693C299.369 160.133 293.404 161.423 290.02 166.041C287.15 170.151 285.496 174.987 285.247 179.994C284.317 193.069 286.032 206.199 290.29 218.597C290.325 218.705 290.375 218.807 290.44 218.9C286.99 220.774 283.648 222.842 280.432 225.094C278.254 226.246 276.051 227.358 273.821 228.429C273.83 228.367 273.83 228.303 273.821 228.24C273.757 227.39 273.427 226.581 272.878 225.927C272.33 225.274 271.59 224.809 270.763 224.599C268.26 223.957 265.689 223.616 263.104 223.584C247.044 222.016 247.439 221.916 244.995 221.916C243.977 221.797 242.945 221.945 242.001 222.343C241.056 222.742 240.231 223.378 239.605 224.19C239.404 224.537 239.281 224.924 239.245 225.324C239.21 225.724 239.262 226.126 239.399 226.504C239.537 226.881 239.755 227.223 240.038 227.507C240.322 227.791 240.665 228.009 241.042 228.146C248.518 232.891 250.614 231.526 256.193 235.477C215.719 248.737 179.437 242.296 176.296 242.933C175.721 243.197 175.189 243.548 174.72 243.973C172.346 242.043 169.843 240.278 167.228 238.69C166.313 238.147 165.254 237.897 164.193 237.975C163.132 238.053 162.121 238.454 161.295 239.124C159.243 240.636 157.681 242.521 155.799 244.067C148.096 250.394 138.624 253.172 138.391 258.014C138.26 260.716 140.476 260.875 141.449 260.944C150.003 261.378 156.11 257.967 168.167 257.725C168.934 257.708 169.051 257.742 169.279 257.636C169.599 263.872 175.531 266.691 181.436 268.556C225.049 282.412 278.397 281.997 333.146 261.851C335.338 260.808 337.587 259.89 339.882 259.101C330.986 271.13 330.364 271.678 328.979 274.717C323.191 272.537 321.582 271.595 319.208 270.666C312.495 273.306 305.572 275.378 298.513 276.86C292.258 278.184 285.923 279.098 279.548 279.595C281.914 282.056 280.56 281.172 303.064 302.747C308.547 308.72 314.975 313.75 322.09 317.637C327.053 320.199 332.52 321.632 338.1 321.835C343.329 321.528 348.37 319.771 352.656 316.761C361.192 310.902 368.865 303.876 375.453 295.889C388.899 279.651 390.548 279.351 400.439 260.789C402.663 262.179 422.593 259.357 433.454 232.082C436.237 224.647 438.639 217.074 440.652 209.395C444.839 195.918 447.725 182.07 449.27 168.042C464.882 164.234 473.762 159.06 498.81 146.95C515.097 139.162 530.717 130.05 545.514 119.706C553.616 113.836 561.12 107.179 567.915 99.8349C568.033 99.6534 568.092 99.4398 568.084 99.2233C570.242 98.3577 572.124 96.9233 573.53 95.0728C574.936 93.2223 575.815 91.025 576.071 88.7149C577.13 88.7148 578.187 88.7901 579.235 88.9401C564.943 121.55 532.681 164.189 510.647 193.991C445.039 282.62 349.365 394.129 252.713 446.218C250.327 447.485 229.213 459.717 227.765 458.3L239.633 470.379C214.847 487 186.78 498.104 157.331 502.938C157.081 502.958 156.845 503.065 156.666 503.241C156.613 503.349 156.585 503.468 156.585 503.589C156.585 503.709 156.613 503.828 156.666 503.936C157.5 508.176 160.28 508.837 173.88 520.616C157.573 529.971 139.811 535.92 112.901 539.061V539.637C148.421 543.382 181.975 532.901 198.316 523.538C192.517 518.495 184.844 515.323 179.015 510.249C198.013 505.568 242.655 493.544 268.931 476.119C265.006 472.133 255.401 466.061 251.442 462.075C252.802 463.584 278.444 449.448 281.163 448.03C340.027 416.919 390.845 377.802 441.453 328.515C457.641 312.78 473.701 297.315 488.81 280.674C509.154 258.256 555.169 203.526 596.243 146.6C605.311 134.652 613.585 122.122 621.01 109.09C621.672 107.766 622.578 107.941 623.126 109.27C624.363 112.289 625.45 115.008 626.478 117.888C626.824 118.82 627.464 119.614 628.302 120.149C629.139 120.684 630.129 120.931 631.12 120.852C632.111 120.773 633.049 120.374 633.791 119.713C634.534 119.053 635.041 118.168 635.235 117.193C639.993 90.9035 641.867 64.173 640.823 37.4767ZM169.31 256.093C163.509 255.859 157.706 256.483 152.088 257.945C148.613 258.619 145.085 258.979 141.546 259.021C140.212 258.879 140.687 257.408 141.226 256.744C144.521 253.205 146.928 253.505 158.117 244.926C160.116 243.189 162.727 239.472 165.276 240.2C166.715 240.807 168.049 241.639 169.226 242.666L173.449 245.621C171.376 248.796 169.967 252.359 169.31 256.093ZM257.714 234.988C256.884 233.618 255.589 232.593 254.066 232.099C249.983 230.673 246.056 228.833 242.346 226.609C241.968 226.353 241.534 225.964 241.612 225.552C241.715 224.996 242.593 224.36 243.483 224.162C245.207 223.901 245.279 224.037 267.288 226.211C269.479 226.425 271.628 226.767 271.767 228.31C271.765 228.487 271.812 228.66 271.901 228.813C271.99 228.966 272.118 229.091 272.273 229.177C267.53 231.378 262.671 233.318 257.717 234.988H257.714ZM420.483 94.6891C423.448 93.302 426.341 91.7654 429.151 90.0855C430.213 89.567 431.394 89.3433 432.572 89.4377C433.749 89.5321 434.88 89.9411 435.845 90.622C435.501 90.7567 435.196 90.9744 434.956 91.2557C434.716 91.537 434.55 91.8732 434.472 92.2344C434.467 92.4261 434.528 92.6136 434.646 92.7654C434.763 92.9172 434.929 93.024 435.115 93.0677C435.302 93.1115 435.498 93.0895 435.671 93.0056C435.843 92.9216 435.981 92.7809 436.062 92.6069C436.137 92.4568 436.259 92.336 436.41 92.264C436.562 92.1919 436.733 92.1727 436.896 92.2094C437.379 92.3549 437.818 92.6175 438.175 92.9739C438.437 93.2393 438.77 93.4228 439.134 93.5021C439.275 93.5095 439.416 93.4816 439.544 93.4209C439.671 93.3602 439.782 93.2687 439.865 93.1546L440.313 93.2574C442.782 97.8904 444.324 102.96 444.852 108.183C445.011 110.392 444.696 112.61 443.929 114.688C443.162 116.765 441.96 118.655 440.404 120.232C436.538 123.61 433.26 123.209 431.447 126.348C430.002 128.48 432.518 127.34 427.258 127.379C422.545 127.437 417.903 126.229 413.817 123.882C414.775 123.336 415.793 122.901 416.85 122.584C418.368 122.104 419.679 121.124 420.569 119.804C421.122 118.46 421.166 116.961 420.694 115.588C420.221 114.214 419.265 113.059 418.003 112.339C417.14 111.867 416.375 111.234 415.749 110.474C413.024 106.162 418.437 99.4263 414.709 94.628C415.614 95.0412 416.596 95.26 417.591 95.2706C418.586 95.2811 419.572 95.0831 420.486 94.6891H420.483ZM404.337 106.846C405.985 106.273 409.405 108.617 410.267 109.924C411.456 111.714 415.184 116.398 415.19 118.202C415.099 118.674 414.909 119.121 414.634 119.515C414.359 119.909 414.003 120.24 413.591 120.488C412.891 120.905 412.209 121.35 411.545 121.825C410.944 121.13 410.401 120.386 409.925 119.601C410.751 118.756 411.344 117.712 411.648 116.571C411.656 116.541 411.657 116.511 411.651 116.481C411.645 116.451 411.632 116.423 411.613 116.4C411.595 116.376 411.571 116.356 411.544 116.343C411.516 116.33 411.487 116.323 411.456 116.323C404.567 116.32 401.71 107.752 404.34 106.846H404.337ZM354.73 115.781C358.033 116.615 358.375 114.094 383.659 116.115C390.715 117.908 398.41 121.627 404.306 121.661C403.806 123.44 403.172 127.846 401.14 134.894C392.846 132.859 384.268 132.234 375.767 133.045C375.645 132.916 375.487 132.827 375.314 132.789C375.141 132.751 374.96 132.767 374.796 132.833C374.632 132.9 374.492 133.015 374.394 133.163C374.296 133.311 374.246 133.485 374.249 133.662C374.287 135.068 374.416 136.47 374.635 137.86C371.313 135.807 368.321 133.262 365.761 130.312C365.583 130.18 365.366 130.112 365.144 130.119C364.923 130.126 364.71 130.208 364.541 130.351C360.642 133.901 356.015 136.557 350.984 138.133C345.952 139.71 340.637 140.168 335.409 139.478C335.243 139.478 335.08 139.522 334.935 139.605C334.791 139.687 334.671 139.806 334.587 139.95C334.503 140.093 334.457 140.256 334.455 140.423C334.453 140.589 334.495 140.753 334.575 140.898C337.628 145.177 341.542 148.77 346.065 151.446C346.471 152.63 346.834 153.826 347.155 155.035C347.155 155.035 344.864 155.168 343.905 155.21C343.739 155.235 343.583 155.306 343.455 155.416C343.326 155.525 343.231 155.667 343.179 155.827C343.128 155.988 343.122 156.159 343.162 156.322C343.202 156.486 343.287 156.635 343.407 156.753C353.713 170.594 355.99 181.712 359.531 191.658C359.785 192.372 359.868 193.134 359.775 193.886C359.683 194.637 359.417 195.356 358.998 195.987C357.737 198.451 355.658 200.399 353.118 201.497C351.987 201.733 350.28 200.663 349.426 200.187C341.073 196.264 333.255 191.291 326.16 185.389C319.411 179.869 313.822 173.066 309.717 165.373C307.4 161.199 306.035 156.563 305.718 151.799C305.401 147.035 306.141 142.26 307.885 137.815C310.222 137.238 312.605 136.863 315.007 136.692C318.94 137.427 322.7 138.897 326.088 141.026C326.274 141.135 326.493 141.173 326.704 141.132C326.916 141.091 327.105 140.974 327.236 140.803C327.368 140.633 327.432 140.42 327.418 140.205C327.404 139.99 327.311 139.788 327.158 139.636C323.822 135.033 318.857 132.581 312.266 130.762C322.544 120.312 340.127 117.001 354.73 115.781ZM410.144 150.17L417.372 161.106C416.483 163.477 415.545 165.831 414.559 168.17C412.14 162.354 408.713 157.01 404.437 152.385C405.732 148.215 407.022 143.97 408.068 139.717C411.578 143.551 414.438 147.932 416.535 152.688C417.925 155.719 417.647 155.91 418.523 157.948L418.206 158.838L411.768 149.108C411.697 149.001 411.606 148.909 411.501 148.838C411.395 148.766 411.276 148.716 411.151 148.691C411.025 148.665 410.896 148.665 410.771 148.689C410.645 148.713 410.526 148.762 410.419 148.832C410.313 148.903 410.221 148.994 410.15 149.1C410.078 149.205 410.028 149.324 410.003 149.45C409.977 149.575 409.976 149.704 410.001 149.829C410.025 149.955 410.074 150.074 410.144 150.181V150.17ZM399.733 177.188L405.199 187.263C401.65 193.806 397.719 200.134 393.425 206.215L387.979 194.26C389.262 191.838 390.485 189.385 391.649 186.902L395.316 193.474C395.441 193.699 395.652 193.866 395.9 193.936C396.148 194.007 396.415 193.976 396.64 193.85C396.866 193.725 397.032 193.515 397.103 193.266C397.174 193.018 397.143 192.751 397.017 192.526C393.453 186.148 392.911 185.042 392.644 184.742C395.146 179.182 397.843 172.196 399.722 166.883L404.921 177.049C404.978 177.165 405.057 177.268 405.154 177.353C405.252 177.438 405.365 177.502 405.487 177.543C405.61 177.583 405.739 177.599 405.868 177.589C405.996 177.579 406.122 177.544 406.237 177.485C406.351 177.426 406.453 177.345 406.537 177.247C406.62 177.148 406.683 177.034 406.721 176.911C406.76 176.788 406.774 176.658 406.762 176.53C406.75 176.401 406.713 176.277 406.652 176.163L400.606 164.339C400.995 163.198 401.379 162.048 401.757 160.889L406.336 168.951C406.399 169.063 406.483 169.16 406.584 169.239C406.685 169.317 406.8 169.375 406.924 169.409C407.047 169.443 407.176 169.452 407.302 169.437C407.429 169.421 407.552 169.38 407.663 169.317C407.774 169.254 407.872 169.169 407.95 169.068C408.029 168.968 408.087 168.852 408.121 168.729C408.155 168.606 408.164 168.477 408.148 168.35C408.132 168.223 408.092 168.101 408.029 167.989L402.577 158.368C402.702 157.97 403.772 154.543 403.772 154.543C407.941 159.28 411.243 164.716 413.525 170.6C411.34 175.582 408.941 180.464 406.33 185.248L401.443 176.252C401.383 176.137 401.302 176.034 401.202 175.951C401.103 175.868 400.988 175.806 400.864 175.768C400.74 175.73 400.61 175.717 400.481 175.73C400.353 175.743 400.228 175.781 400.114 175.843C400 175.905 399.9 175.988 399.819 176.09C399.738 176.191 399.678 176.307 399.642 176.431C399.607 176.556 399.597 176.686 399.612 176.815C399.628 176.944 399.669 177.068 399.733 177.18V177.188ZM371.271 198.77C371.403 198.623 371.528 198.468 371.647 198.303C371.891 197.797 371.971 197.228 371.873 196.675C371.776 196.122 371.507 195.614 371.105 195.222C370.627 194.892 370.073 194.69 369.496 194.635C368.918 194.58 368.336 194.674 367.805 194.908C366.938 195.119 366.05 195.233 365.158 195.25C365.51 194.961 365.801 194.606 366.015 194.204C366.229 193.802 366.362 193.362 366.406 192.909C366.314 192.382 366.042 191.904 365.637 191.555C365.231 191.206 364.717 191.009 364.182 190.997C365.124 188.057 366.013 185.1 366.851 182.126C370.877 184.628 371.299 184.961 374.61 187.322C375.538 188.185 376.601 188.89 377.757 189.409C374.938 196.79 374.916 196.882 372.684 201.725C372.589 201.95 372.016 203.593 371.811 204.063C371.48 203.867 371.169 203.64 370.882 203.384C370.835 203.179 370.758 202.981 370.654 202.798C372.953 201.416 372.553 199.29 371.271 198.77ZM368.636 204.052L368.603 204.085C366.976 204.8 365.2 205.11 363.427 204.99C361.655 204.869 359.937 204.321 358.422 203.393C357.659 203.066 356.949 202.625 356.318 202.086C357.285 201.381 358.145 200.538 358.87 199.584C360.16 198.198 361.076 196.507 361.533 194.669C362.205 193.766 363.168 193.122 364.26 192.845C364.113 193.123 364.538 193.09 363.551 193.916C362.907 194.382 362.454 195.067 362.278 195.842C362.246 195.98 362.244 196.123 362.273 196.261C362.302 196.399 362.361 196.529 362.446 196.642C362.531 196.754 362.639 196.847 362.764 196.913C362.889 196.979 363.027 197.017 363.168 197.024C364.997 197.195 366.843 197.032 368.614 196.543C369.134 196.523 370.118 196.265 369.656 197.199C369.326 197.783 368.823 198.25 368.216 198.536C368.07 198.548 367.929 198.596 367.806 198.676C367.684 198.756 367.583 198.866 367.513 198.995C367.443 199.124 367.406 199.268 367.406 199.415C367.406 199.561 367.443 199.705 367.513 199.834C367.513 201.055 369.64 200.41 370.332 200.51C369.886 201.058 369.276 201.447 368.591 201.622C367.377 201.678 367.068 202.525 367.382 203.12C367.646 203.635 368.383 203.79 368.636 204.068V204.052ZM364.421 173.269C363.726 173.06 353.896 171.02 353.618 170.961C352.495 168.613 351.279 166.308 349.971 164.047C350.072 162.853 350.028 161.651 349.84 160.467C351.962 160.745 354.13 160.956 356.234 161.151C360.838 161.576 364.435 162.001 369.459 162.63C369.255 163.61 369.048 164.586 368.839 165.557C366.023 164.994 363.18 164.579 360.321 164.314C360.148 164.3 359.975 164.351 359.838 164.458C359.7 164.564 359.608 164.718 359.578 164.89C359.549 165.061 359.585 165.237 359.679 165.384C359.774 165.53 359.919 165.635 360.087 165.679C361.18 165.957 363.807 166.255 368.45 167.286C366.593 175.66 364.302 183.81 361.778 192.095C361.655 192.201 361.539 192.306 361.425 192.412C361.095 190.477 360.478 188.603 359.593 186.852C358.231 182.019 356.504 177.296 354.427 172.724C355.854 173.08 357.282 173.402 358.703 173.733C360.514 174.242 362.352 174.651 364.207 174.959C364.416 174.958 364.617 174.882 364.774 174.743C364.93 174.605 365.031 174.415 365.057 174.208C365.083 174.001 365.033 173.791 364.916 173.619C364.799 173.446 364.623 173.321 364.421 173.269ZM347.021 149.286C350.466 149.75 353.933 150.028 357.408 150.12C358.464 150.156 364.157 150.042 368.027 149.611C368.611 149.611 371.157 149.033 371.958 148.958C371.797 150.49 371.537 152.01 371.18 153.508C370.849 155.407 369.934 160.319 369.82 160.878C365.211 160.322 354.283 159.024 349.629 158.891C349.086 155.609 348.212 152.391 347.021 149.286ZM348.439 161.501C347.513 160.018 346.547 158.549 345.542 157.092L347.625 156.978C347.96 158.468 348.232 159.973 348.439 161.493V161.501ZM344.973 148.566C345.02 148.677 345.064 148.791 345.109 148.902C343.49 147.694 341.955 146.377 340.513 144.963C339.382 143.849 338.317 142.669 337.325 141.429C343.262 141.899 349.225 140.946 354.719 138.649C354.605 139.461 354.819 139.589 355.175 140.153C353.585 141.518 353.996 142.933 355.556 143.67C356.257 143.928 357.005 144.032 357.749 143.976C358.611 143.956 359.796 144.02 360.235 144.763C360.513 145.218 359.459 145.56 358.886 145.435C357.068 145.038 356.749 144.401 356.179 144.771C356.053 144.858 355.956 144.98 355.899 145.122C355.841 145.264 355.827 145.419 355.856 145.569C355.856 146.125 357.246 147.456 359.039 147.456C359.456 147.449 359.871 147.396 360.276 147.298C360.352 147.354 360.991 147.854 361.069 147.89C360.682 147.996 360.293 148.093 359.904 148.188C355.218 148.268 350.532 147.984 345.89 147.34C345.739 147.331 345.589 147.359 345.452 147.422C345.315 147.485 345.195 147.582 345.104 147.702C345.014 147.823 344.954 147.964 344.931 148.113C344.908 148.262 344.922 148.415 344.973 148.557V148.566ZM389.828 154.907C389.714 154.897 389.6 154.912 389.492 154.95C389.385 154.988 389.287 155.048 389.205 155.127C389.122 155.206 389.058 155.302 389.015 155.408C388.973 155.513 388.953 155.627 388.958 155.741C388.964 155.898 389.022 156.049 389.123 156.171C389.223 156.292 389.36 156.377 389.514 156.414C392.016 157.12 393.845 157.804 395.524 158.429C397.152 158.802 398.684 159.513 400.019 160.517C399.708 161.455 399.391 162.391 399.069 163.325L394.268 161.342C394.148 161.286 394.018 161.255 393.887 161.251C393.755 161.246 393.623 161.268 393.5 161.316C393.377 161.364 393.265 161.436 393.171 161.528C393.076 161.62 393.002 161.731 392.951 161.853C392.901 161.975 392.876 162.106 392.877 162.238C392.879 162.37 392.907 162.5 392.961 162.621C393.014 162.741 393.091 162.85 393.188 162.94C393.285 163.03 393.398 163.099 393.523 163.144L398.429 165.171C395.182 174.787 391.178 184.13 386.453 193.112L382.18 191.086C382.065 191.031 381.939 190.999 381.812 190.993C381.684 190.987 381.556 191.006 381.436 191.049C381.315 191.092 381.205 191.158 381.11 191.244C381.015 191.329 380.938 191.433 380.883 191.549C380.828 191.664 380.797 191.789 380.791 191.917C380.784 192.045 380.803 192.172 380.846 192.293C380.889 192.413 380.955 192.524 381.041 192.619C381.127 192.714 381.231 192.791 381.346 192.845L385.516 194.828C383.329 198.835 380.983 202.749 378.477 206.57C377.297 205.072 375.969 203.696 374.513 202.464C378.8 193.012 386.08 173.049 387.857 160.742C387.992 160.666 388.108 160.559 388.195 160.431C388.283 160.302 388.339 160.155 388.36 160.001C388.382 159.847 388.367 159.691 388.318 159.543C388.269 159.396 388.186 159.262 388.077 159.152C384.651 155.899 381.051 152.836 377.29 149.978C377.29 149.422 377.29 148.846 377.262 148.31C385.802 148.742 394.207 150.617 402.121 153.856C401.901 154.579 400.901 157.765 400.62 158.638C397.149 157.052 393.535 155.8 389.828 154.898V154.907ZM380.415 172.977C378.819 171.656 377.081 170.517 375.233 169.58C373.75 168.666 372.193 167.879 370.579 167.225C370.879 165.857 371.169 164.488 371.449 163.116C373.564 164.236 375.621 165.462 377.613 166.788C379.711 168.18 381.721 169.701 383.631 171.342C382.959 173.789 381.274 179.529 380.001 183.279C376.448 180.371 372.626 177.809 368.586 175.629C369.155 173.39 369.695 171.144 370.207 168.89C370.668 169.138 371.132 169.379 371.597 169.621C374.308 171.041 376.929 172.627 379.445 174.37C379.628 174.466 379.841 174.492 380.042 174.442C380.244 174.393 380.421 174.272 380.539 174.102C380.658 173.932 380.711 173.725 380.688 173.519C380.665 173.313 380.568 173.122 380.415 172.982V172.977ZM379.484 184.75C379.097 185.848 378.691 186.944 378.277 188.036C374.828 185.246 371.141 182.762 367.26 180.613C367.566 179.501 367.864 178.389 368.155 177.277C378.566 183.758 377.02 183.132 379.484 184.756V184.75ZM386.37 160.194C385.477 163.252 384.921 166.277 384.162 169.335C380.356 166.237 376.199 163.596 371.777 161.468C372.115 159.759 372.434 158.048 372.736 156.336C376.876 158.357 383.134 162.418 383.198 162.452C383.305 162.521 383.425 162.569 383.55 162.593C383.676 162.616 383.805 162.615 383.93 162.588C384.055 162.562 384.174 162.511 384.279 162.439C384.385 162.366 384.475 162.274 384.545 162.167C384.614 162.06 384.662 161.94 384.686 161.814C384.709 161.688 384.707 161.559 384.681 161.434C384.655 161.309 384.604 161.191 384.531 161.085C384.459 160.98 384.367 160.89 384.26 160.82C380.651 158.461 376.919 156.295 373.081 154.331C373.333 152.819 373.574 151.308 373.804 149.797C378.236 152.96 382.435 156.437 386.37 160.2V160.194ZM374.065 147.793C374.046 147.668 374.002 147.548 373.934 147.441C373.867 147.334 373.779 147.242 373.675 147.17C373.57 147.098 373.453 147.049 373.329 147.024C373.205 147 373.077 147.001 372.953 147.028C370.998 147.345 369.037 147.599 367.071 147.79C369.928 146.646 372.639 145.167 375.15 143.386C375.297 145.127 375.427 146.864 375.572 148.769C375.08 148.452 374.577 148.112 374.065 147.798V147.793ZM373.665 142.085C370.277 144.475 366.521 146.294 362.545 147.47C362.562 147.413 362.57 147.354 362.57 147.295C362.57 146.739 362.57 146.692 361.772 146.15C362.781 144.51 361.672 142.992 359.943 142.436C358.964 142.122 356.735 142.436 356.051 141.88C356.296 141.586 356.576 141.323 356.885 141.096C356.967 141.18 357.068 141.242 357.179 141.277C357.291 141.313 357.409 141.32 357.524 141.299H357.574C358.169 141.429 358.642 140.743 358.525 140.131C358.472 139.9 358.359 139.686 358.198 139.512C358.038 139.337 357.834 139.208 357.608 139.136C357.324 139.077 357.029 139.103 356.76 139.211C356.718 139.141 356.599 138.966 356.551 138.9C356.433 138.57 356.192 138.298 355.879 138.141C359.163 136.64 362.227 134.699 364.986 132.369C367.872 135.418 371.178 138.039 374.805 140.153C374.846 140.473 374.888 140.784 374.93 141.14C374.499 141.44 374.074 141.78 373.665 142.085ZM373.754 204.146C377.193 207.76 378.252 209.011 378.252 209.011C378.252 209.011 381.154 214.377 381.805 215.744C378.493 212.849 375.344 209.772 372.372 206.529C372.795 206.334 372.831 206.106 373.746 204.146H373.754ZM379.628 208.363C382.189 204.471 384.589 200.487 386.828 196.409L392.082 207.938C389.649 210.952 387.001 213.787 384.159 216.42C384.001 216.139 380.209 209.334 379.62 208.363H379.628ZM403.784 148.188C400.548 146.772 393.117 144.409 390.834 143.776C390.651 143.735 390.46 143.766 390.298 143.86C390.137 143.955 390.017 144.107 389.962 144.286C389.907 144.465 389.922 144.658 390.003 144.827C390.085 144.995 390.226 145.127 390.401 145.196C399.188 148.087 398.646 148.301 403.269 149.983C403.075 150.653 402.88 151.326 402.683 151.996C394.664 148.436 385.988 146.601 377.215 146.608C377.198 146.272 376.84 140.709 376.812 140.373C383.229 139.977 389.67 140.415 395.974 141.677C396.187 141.682 396.394 141.605 396.552 141.462C396.711 141.32 396.808 141.122 396.825 140.909C396.844 140.715 396.788 140.52 396.669 140.366C396.55 140.211 396.376 140.107 396.183 140.075C392.774 139.005 389.217 138.475 385.644 138.505C382.638 138.309 379.621 138.381 376.628 138.722C376.384 136.72 376.495 136.534 376.22 134.78C386.512 134.019 396.855 135.246 406.683 138.394C405.732 141.357 404.72 144.86 403.775 148.188H403.784ZM309.975 134.718C310.27 134.387 310.453 133.971 310.499 133.529C310.545 133.088 310.451 132.643 310.231 132.258C312.689 132.889 315.098 133.697 317.439 134.674C314.279 134.706 311.132 135.091 308.057 135.822C308.068 135.771 308.074 135.719 308.074 135.666V135.597C308.798 135.566 309.482 135.25 309.975 134.718ZM289.017 144.323C291.769 135.411 297.482 130.701 306.837 131.666C307.391 132.146 307.977 132.588 308.591 132.989C308.98 133.284 308.488 133.745 308.057 133.737C307.123 133.64 307.089 133.32 305.98 132.928C305.799 132.874 305.606 132.879 305.427 132.94C305.249 133.002 305.094 133.118 304.985 133.273C304.906 133.418 304.867 133.581 304.872 133.746C304.877 133.912 304.925 134.072 305.013 134.212C305.438 134.757 306.02 135.158 306.681 135.361C306.703 135.672 306.595 135.85 306.809 136.133C300.479 137.896 294.472 140.661 289.017 144.323ZM300.49 216.645C293.462 217.287 295.263 216.984 293.54 217.171C292.975 217.279 292.395 217.279 291.83 217.171C291.424 216.457 291.142 215.679 290.996 214.871C289.706 210.686 288.685 206.422 287.938 202.106C286.422 193.692 286.362 185.08 287.76 176.646C288.297 172.604 290.126 168.844 292.975 165.927C296.339 162.869 301.229 161.926 305.544 160.756C311.874 178.49 330.211 193.299 347.244 201.664C332.764 209.608 316.891 214.694 300.49 216.645ZM401.22 228.21C395.795 228.139 390.391 227.504 385.096 226.317C371.039 222.588 358.52 214.512 349.326 203.243C349.244 203.024 349.174 202.802 349.118 202.575C350.105 203.245 351.261 203.621 352.454 203.66C353.199 203.673 353.936 203.505 354.603 203.17C355.788 204.292 357.19 205.16 358.722 205.72C361.711 207.19 365.16 207.419 368.316 206.356C368.745 206.226 369.163 206.062 369.567 205.867C373.516 210.448 377.79 214.738 382.355 218.705C382.39 218.857 382.462 218.998 382.566 219.115C382.669 219.231 382.8 219.321 382.946 219.374C383.093 219.427 383.25 219.443 383.404 219.42C383.558 219.397 383.704 219.336 383.829 219.242C393.158 212.183 399.291 201.477 404.706 192.025C407.309 187.341 412.96 177.069 415.529 171.423C417.443 167.235 418.975 162.882 420.105 158.418C420.248 158.253 420.321 158.038 420.308 157.82C419.95 155.95 419.324 154.141 418.451 152.449C416.215 146.939 412.827 141.971 408.512 137.879C408.654 137.248 407.862 136.753 407.484 136.659C406.09 136.208 404.682 135.794 403.261 135.416C404.612 130.891 405.555 126.254 406.08 121.561C407.051 121.413 407.979 121.059 408.801 120.521C409.184 121.34 409.659 122.113 410.216 122.826C409.753 123.196 409.3 123.581 408.857 123.979C408.104 124.685 407.612 125.624 407.46 126.644C407.309 127.665 407.507 128.707 408.023 129.6C408.839 130.497 409.922 131.107 411.112 131.341C411.833 131.639 412.619 131.746 413.394 131.652C414.169 131.557 414.906 131.264 415.535 130.801C415.567 130.776 415.59 130.742 415.602 130.703C415.614 130.664 415.614 130.622 415.601 130.584C415.588 130.545 415.563 130.511 415.531 130.487C415.498 130.463 415.459 130.449 415.418 130.448C414.634 130.456 413.862 130.263 413.174 129.887C412.487 129.51 411.908 128.964 411.492 128.299C411.328 127.715 411.318 127.099 411.465 126.51C411.611 125.921 411.908 125.38 412.326 124.941C416.079 127.406 420.431 128.803 424.917 128.983C426.808 129.032 428.692 129.212 430.558 129.523C430.558 129.523 431.617 131.338 431.72 131.469C431.136 131.869 430.579 132.308 430.052 132.781C429.692 133.237 429.451 133.775 429.35 134.348C429.25 134.92 429.294 135.509 429.477 136.06C429.661 136.612 429.979 137.109 430.402 137.507C430.826 137.905 431.342 138.192 431.903 138.341C435.837 165.307 431.233 194.249 418.201 224.54C413.223 227.902 407.142 229.216 401.22 228.21ZM564.128 100.839C539.734 125.783 506.769 140.801 475.752 155.83C467.374 160.128 458.539 163.472 449.414 165.799C449.76 159.412 449.533 153.007 448.736 146.661C448.736 146.474 448.683 146.291 448.583 146.133C448.483 145.975 448.34 145.849 448.171 145.769C448.002 145.69 447.814 145.66 447.628 145.684C447.443 145.707 447.268 145.783 447.124 145.902C446.957 146.014 446.825 146.171 446.743 146.354C446.661 146.538 446.632 146.74 446.659 146.939C450.118 172.159 441.8 199.303 433.632 225.511C431.268 233.374 427.48 240.738 422.457 247.233C417.623 253.376 410.672 257.495 402.963 258.784C425.145 220.976 441.708 177.936 433.018 135.316C432.992 135.194 432.934 135.081 432.85 134.989C432.766 134.896 432.659 134.828 432.54 134.791C432.42 134.726 432.284 134.696 432.147 134.704C432.011 134.713 431.88 134.759 431.768 134.838C431.657 134.917 431.569 135.025 431.516 135.151C431.463 135.277 431.446 135.415 431.467 135.55C430.697 134.029 432.279 133.579 433.179 132.703C434.182 133.172 435.283 133.392 436.39 133.343C437.496 133.295 438.574 132.98 439.532 132.425C439.568 132.403 439.597 132.37 439.613 132.33C439.63 132.29 439.632 132.246 439.621 132.205C439.61 132.163 439.586 132.126 439.552 132.1C439.519 132.073 439.477 132.059 439.434 132.058C438.861 132.016 438.317 131.786 437.887 131.404C437.457 131.022 437.165 130.51 437.055 129.945C511.603 113.793 560.42 92.618 562.099 92.7932C563.808 94.463 565.079 96.5283 565.799 98.8063C565.719 99.4819 564.69 100.249 564.123 100.839H564.128ZM573.539 91.7979C572.506 94.2307 570.565 96.1646 568.129 97.1884C567.901 97.2968 567.673 97.4052 567.448 97.5192C566.529 95.3415 565.342 93.2869 563.914 91.4032C564.147 90.0622 564.483 88.7414 564.921 87.4528C565.217 86.8106 565.692 86.2679 566.29 85.8906C566.888 85.5133 567.583 85.3174 568.29 85.3268C568.997 85.3363 569.686 85.5505 570.274 85.9436C570.861 86.3368 571.323 86.8919 571.601 87.5418C571.72 87.7453 571.802 87.9684 571.843 88.2006C571.508 88.394 571.126 88.4912 570.74 88.4814C570.353 88.4716 569.977 88.3552 569.652 88.145C569.482 88.0568 569.291 88.018 569.1 88.0331C568.909 88.0481 568.726 88.1163 568.571 88.2301C568.417 88.3438 568.298 88.4985 568.227 88.6765C568.156 88.8546 568.137 89.049 568.171 89.2376C568.299 89.8601 568.286 90.5035 568.132 91.1203C567.979 91.7372 567.689 92.3117 567.284 92.8015C567.15 93.0166 567.101 93.2734 567.146 93.5225C567.191 93.7716 567.327 93.9951 567.527 94.15C567.727 94.3049 567.978 94.3801 568.23 94.361C568.482 94.342 568.719 94.2301 568.893 94.047C569.753 93.0417 570.249 91.7766 570.303 90.4552C570.821 90.5141 571.346 90.4668 571.846 90.3163C572.345 90.1657 572.809 89.915 573.208 89.5795C573.497 89.4147 573.712 89.145 573.808 88.8261C574.061 88.8011 574.314 88.7816 574.57 88.765C574.355 89.814 574.011 90.8326 573.547 91.7979H573.539Z" fill="black"/>
<path d="M424.343 101.77C424.782 103.516 426.042 105.237 427.429 103.958C428.471 102.999 427.574 100.099 426.639 99.371C425.705 98.6426 423.534 98.5509 424.343 101.77Z" fill="black"/>
<path d="M436.729 98.022C437.263 99.968 438.847 100.093 439.509 99.2202C440.315 98.136 439.465 95.9453 438.764 95.1614C437.777 94.0744 435.87 94.8834 436.729 98.022Z" fill="black"/>
<path d="M435.352 101.025C437.278 103.833 437.854 105.181 438.638 106.421C437.795 106.603 436.969 106.853 436.166 107.169C435.967 107.241 435.798 107.379 435.688 107.56C435.578 107.742 435.534 107.955 435.562 108.165C435.59 108.376 435.69 108.57 435.844 108.716C435.998 108.862 436.197 108.95 436.408 108.967C437.81 108.811 439.165 108.374 440.395 107.683C441.318 106.668 439.892 104.806 439.419 104.019C438.035 101.585 436.368 99.3231 434.454 97.2801C434.327 97.1786 434.168 97.1248 434.005 97.1282C433.843 97.1316 433.686 97.192 433.564 97.2989C433.441 97.4057 433.36 97.5523 433.334 97.7129C433.308 97.8736 433.339 98.0382 433.422 98.1781C434.009 99.1641 434.653 100.115 435.352 101.025Z" fill="black"/>
<path d="M421.649 99.5797C421.681 99.7374 421.768 99.8789 421.893 99.9803C422.018 100.082 422.174 100.137 422.335 100.136H422.613C422.729 100.136 422.842 100.107 422.944 100.053C423.045 99.9984 423.132 99.9194 423.195 99.8232C423.258 99.727 423.297 99.6165 423.307 99.5017C423.317 99.3869 423.298 99.2713 423.253 99.1655C423.252 98.4201 423.506 97.6967 423.972 97.1149C424.438 96.5331 425.088 96.1277 425.816 95.9657C427.225 95.9657 427.645 95.1067 427.242 94.4618C427.203 94.3635 427.142 94.2752 427.064 94.2032C426.304 93.9923 425.498 94.0078 424.746 94.2478C423.994 94.4877 423.328 94.9418 422.83 95.5543C422.333 96.0869 421.968 96.7282 421.763 97.4271C421.558 98.126 421.519 98.8631 421.649 99.5797Z" fill="black"/>
<path d="M426.325 108.361C426.635 112.07 428.301 115.533 431.004 118.091C432.649 119.351 434.49 118.592 436.144 117.327C437.74 116.141 439.098 114.665 440.147 112.976C440.237 112.788 440.26 112.575 440.212 112.372C440.164 112.17 440.047 111.99 439.881 111.863C439.716 111.736 439.512 111.671 439.303 111.677C439.095 111.683 438.895 111.761 438.738 111.897C437.288 113.813 435.491 115.438 433.439 116.687C433.111 116.777 432.764 116.764 432.443 116.651C432.123 116.538 431.844 116.329 431.646 116.054C430.11 114.302 429.025 112.203 428.482 109.938C430.102 110.656 431.829 111.1 433.595 111.253C435.945 111.793 438.412 111.446 440.522 110.28C441.337 109.829 440.545 108.334 439.774 108.912C437.876 109.712 435.77 109.884 433.767 109.401C431.626 109.154 429.566 108.442 427.729 107.316C427.566 107.243 427.387 107.214 427.209 107.233C427.031 107.252 426.862 107.319 426.719 107.425C426.576 107.532 426.464 107.675 426.394 107.84C426.325 108.004 426.301 108.184 426.325 108.361Z" fill="black"/>
<path d="M244.116 177.919C253.459 180.732 264.966 179.64 272.614 172.745C276.629 169.031 280.01 164.685 282.622 159.879C283.105 159.232 282.738 158.133 281.496 158.348C275.142 159.406 268.666 159.508 262.283 158.648C262.121 158.644 261.96 158.681 261.816 158.754C261.671 158.828 261.547 158.936 261.454 159.069C261.361 159.203 261.303 159.357 261.284 159.518C261.265 159.679 261.287 159.842 261.346 159.993C258.224 164.431 253.706 167.695 248.513 169.265C243.32 170.835 237.75 170.62 232.693 168.656C232.499 168.618 232.298 168.639 232.115 168.716C231.933 168.793 231.778 168.923 231.671 169.089C231.563 169.255 231.507 169.449 231.51 169.647C231.513 169.844 231.576 170.037 231.689 170.199C234.835 174.108 239.217 176.831 244.116 177.919ZM279.7 160.547C276.933 165.169 273.354 169.253 269.136 172.603C269.191 172.481 269.217 172.348 269.214 172.215C269.211 172.081 269.179 171.949 269.119 171.83C269.058 171.71 268.972 171.606 268.867 171.524C268.761 171.441 268.638 171.384 268.508 171.355C268.213 171.185 267.897 171.055 267.568 170.969C267.597 170.476 267.514 169.983 267.324 169.527C267.134 169.072 266.843 168.665 266.473 168.339C265.699 167.78 264.746 167.525 263.796 167.622C262.847 167.719 261.966 168.162 261.321 168.867C260.065 169.91 258.936 171.597 257.49 171.069C256.754 170.819 256.834 170.513 256.882 170.329C257.026 169.968 257.243 169.641 257.52 169.367C257.796 169.094 258.126 168.88 258.488 168.739C258.538 168.82 258.604 168.89 258.682 168.945C258.76 168.999 258.848 169.037 258.942 169.056C259.239 169.126 259.409 168.989 259.692 168.778C260.443 168.244 259.625 167.08 258.602 167.004C257.715 167.076 256.882 167.463 256.253 168.094C256.059 168.121 255.861 168.121 255.667 168.094H255.358C258.319 166.181 260.849 163.673 262.789 160.73C268.404 161.417 274.085 161.356 279.683 160.549L279.7 160.547ZM254.357 169.462C254.447 169.579 254.567 169.669 254.704 169.722C254.841 169.775 254.991 169.789 255.136 169.762C254.98 170.401 255.083 171.075 255.42 171.639C255.758 172.203 256.304 172.611 256.94 172.776C259.164 173.549 261.063 171.611 261.71 170.941C262.287 170.256 263.034 169.734 263.876 169.429C264.205 169.316 264.564 169.328 264.885 169.462C265.206 169.595 265.467 169.842 265.619 170.154C265.757 170.481 265.765 170.848 265.642 171.18C265.518 171.512 265.273 171.785 264.955 171.942C264.109 172.22 263.224 172.362 262.333 172.362C262.084 172.337 261.836 172.41 261.64 172.566C261.445 172.722 261.317 172.948 261.285 173.196C261.269 173.4 261.329 173.603 261.453 173.766C261.577 173.929 261.757 174.041 261.958 174.08C262.841 174.337 263.779 174.34 264.663 174.089C265.548 173.838 266.345 173.344 266.962 172.662C267.715 172.884 267.796 173.182 268.285 173.187C265.706 174.944 262.805 176.173 259.748 176.801C255.076 177.699 250.263 177.544 245.659 176.348C242.021 175.688 238.63 174.055 235.845 171.622C242.099 173.002 248.643 171.996 254.193 168.8C254.157 169.032 254.21 169.27 254.341 169.465L254.357 169.462Z" fill="black"/>
<path d="M154.132 166.451C154.151 166.639 154.222 166.817 154.338 166.965C154.454 167.114 154.61 167.226 154.787 167.29C154.964 167.353 155.156 167.365 155.34 167.324C155.523 167.283 155.692 167.19 155.825 167.057C161.31 160.928 168.068 156.072 175.627 152.829C179.262 151.314 183.194 150.649 187.125 150.883C191.055 151.118 194.881 152.247 198.309 154.183C198.492 154.277 198.698 154.314 198.902 154.291C199.106 154.268 199.298 154.186 199.456 154.054C199.613 153.923 199.728 153.748 199.787 153.551C199.845 153.355 199.845 153.145 199.785 152.949C198.066 148.187 195.799 143.64 193.03 139.402C192.943 139.294 192.835 139.204 192.713 139.138C192.591 139.073 192.457 139.032 192.319 139.019C192.181 139.006 192.041 139.02 191.909 139.062C191.777 139.103 191.654 139.171 191.548 139.26C182.863 136.542 173.465 137.276 165.308 141.309C161.174 143.037 157.865 146.292 156.07 150.397C154.254 155.541 153.592 161.022 154.132 166.451ZM191.629 140.945C193.652 144.232 195.418 147.671 196.911 151.231C190.89 148.534 184.104 148.073 177.773 149.93C177.878 149.805 177.935 149.648 177.934 149.485C177.934 148.784 177.782 148.929 177.454 148.153C177.942 148.006 178.395 147.76 178.786 147.432C179.176 147.104 179.496 146.699 179.725 146.244C180.539 144.236 178.249 142.352 175.819 142.057C175.267 142.033 174.717 141.972 174.173 141.873C174.037 141.829 173.922 141.734 173.855 141.607C173.787 141.481 173.77 141.333 173.809 141.195C174.211 140.603 174.807 140.168 175.494 139.966C175.559 139.945 175.621 139.913 175.677 139.872C181.007 139.012 186.462 139.379 191.629 140.945ZM172.255 140.617C171.729 142.051 172.447 143.397 174.426 143.7C175.528 143.631 176.619 143.956 177.504 144.617C177.706 144.795 178.168 145.243 178.06 145.496C177.401 146.777 175.113 146.63 173.823 145.604C173.712 145.534 173.587 145.49 173.457 145.472C173.326 145.455 173.194 145.467 173.069 145.506C172.943 145.544 172.828 145.61 172.73 145.697C172.632 145.785 172.555 145.892 172.502 146.013C172.462 146.153 172.454 146.301 172.478 146.445C172.502 146.59 172.558 146.727 172.641 146.847C173.038 147.294 173.521 147.656 174.062 147.91C174.604 148.165 175.191 148.306 175.788 148.326C175.872 148.726 176.024 149.109 176.239 149.457C176.316 149.621 176.427 149.768 176.563 149.888C176.699 150.008 176.858 150.099 177.031 150.155C168.995 153.105 161.742 157.855 155.825 164.041C155.699 160.022 156.199 156.008 157.31 152.143C158.113 150.015 159.345 148.075 160.93 146.444C162.515 144.812 164.419 143.524 166.523 142.66C168.381 141.84 170.297 141.157 172.255 140.617Z" fill="black"/>
<path d="M614.99 146.163C615.06 145.954 615.079 145.732 615.046 145.514C615.013 145.297 614.928 145.09 614.799 144.911C614.671 144.733 614.502 144.587 614.306 144.487C614.11 144.386 613.893 144.334 613.673 144.334C613.363 144.307 613.053 144.386 612.793 144.556C612.533 144.726 612.338 144.979 612.238 145.273C559.496 299.386 465.254 435.347 321.497 514.577C321.166 514.802 320.932 515.143 320.84 515.532C320.748 515.921 320.805 516.33 321 516.679C321.195 517.028 321.514 517.292 321.894 517.417C322.274 517.543 322.687 517.521 323.051 517.357C464.253 441.23 563.455 300.773 614.99 146.163Z" fill="black"/>
<path d="M621.317 135.263C610.371 254.686 564.128 368.149 488.477 461.201C482.45 468.588 482.514 468.271 482.514 468.969C482.5 469.284 482.583 469.595 482.753 469.861C482.924 470.126 483.172 470.332 483.464 470.45C483.756 470.569 484.078 470.594 484.385 470.521C484.692 470.449 484.968 470.284 485.177 470.047C547.146 396.312 590.561 308.813 611.792 214.865C617.697 188.729 621.814 162.22 624.116 135.524C624.28 133.684 621.475 133.606 621.317 135.263Z" fill="black"/>
</svg>
