<svg width="88" height="38" viewBox="0 0 88 38" fill="none" xmlns="http://www.w3.org/2000/svg">
<path d="M31.003 37H22.7129L7.94149 12.3558H7.41394V24.4141L7.64003 37H0.631135L1.08332 26.2982L0.781864 0.674316H8.99659L23.768 25.2431H24.2956L23.9941 0.975776L31.1538 0.523588L30.7016 25.7707L31.003 37ZM44.476 22.53C47.4906 27.2026 50.4047 31.423 53.2183 35.1913L53.0676 36.0203C50.6057 36.9246 48.1186 37.4522 45.6065 37.6029L44.7775 36.9246C42.0643 32.252 39.8537 28.2075 38.1454 24.791H32.7192V25.4692L33.0206 37H25.3334L25.7856 26.1475L25.3334 0.674316L39.3512 0.598952C43.1697 0.598952 46.1089 1.52845 48.1689 3.38744C50.2288 5.24643 51.2588 7.90931 51.2588 11.3761C51.2588 13.6873 50.6559 15.8226 49.4501 17.7821C48.2442 19.7415 46.5862 21.3242 44.476 22.53ZM43.1948 12.1297C43.1948 8.31125 41.0846 6.35177 36.8642 6.25129L33.0206 6.47738L32.8699 18.7618L38.4469 19.0633C41.6624 17.9579 43.2451 15.6467 43.1948 12.1297ZM73.7142 17.7821C78.0351 23.8112 82.6826 29.6896 87.6566 35.4173L87.5059 36.2464C85.1947 36.799 82.7077 37.2512 80.0448 37.6029L79.1404 37.0754C73.7644 29.7399 69.4184 23.4846 66.1024 18.3096L65.9517 25.4692L66.2531 37H58.4906L59.0181 26.1475L58.4906 0.674316H66.3285L66.1024 17.556L76.2012 4.14108L78.3114 0.674316H86.6015L73.7142 17.7821Z" fill="#FF5C33"/>
</svg>
